<svg width="75" height="60" viewBox="0 0 75 60" fill="none" xmlns="http://www.w3.org/2000/svg">
<path d="M36.8557 22.0409C42.9396 22.0409 47.8716 17.1069 47.8716 11.0204C47.8716 4.93402 42.9396 0 36.8557 0C30.7718 0 25.8398 4.93402 25.8398 11.0204C25.8398 17.1069 30.7718 22.0409 36.8557 22.0409Z" fill="#F6E174"/>
<path d="M9.38391 52.6526H3.67196V56.7342H10.6079V59.5914H0V43.2648H10.7439V46.1219H3.80796V49.6594H9.51991V52.6526H9.38391Z" fill="#587D7B"/>
<path d="M17.4085 57.0063C17.9525 57.0063 18.3605 56.8703 18.4965 56.5981C18.7685 56.326 18.9045 55.9179 18.9045 55.3737H22.3044C22.3044 56.7342 21.8964 57.8226 20.9445 58.639C19.9925 59.4553 18.7685 59.8635 17.2725 59.8635C15.3685 59.8635 14.0085 59.3192 13.0565 58.0948C12.1045 57.0063 11.5605 55.5097 11.5605 53.6049V53.3328C11.5605 51.5641 12.1045 50.0675 13.0565 48.843C14.0085 47.7546 15.5045 47.0743 17.2725 47.0743C18.7685 47.0743 19.9925 47.4825 20.9445 48.2988C21.8964 49.1151 22.3044 50.3396 22.3044 51.8362H18.9045C18.9045 51.292 18.7685 50.7478 18.4965 50.4757C18.2245 50.0675 17.8165 49.9315 17.2725 49.9315C16.5925 49.9315 16.0485 50.2036 15.7765 50.7478C15.5045 51.292 15.3685 52.1083 15.3685 53.0607V53.3328C15.3685 54.2852 15.5045 55.1015 15.7765 55.7818C16.0485 56.5981 16.5925 57.0063 17.4085 57.0063Z" fill="#587D7B"/>
<path d="M23.3936 53.4694C23.3936 51.7007 23.9375 50.2041 24.8895 48.9796C25.9775 47.8911 27.3375 47.2109 29.2415 47.2109C31.1455 47.2109 32.5055 47.7551 33.5935 48.9796C34.6814 50.068 35.0894 51.5646 35.0894 53.4694V53.7415C35.0894 55.5102 34.5454 57.0068 33.5935 58.2313C32.5055 59.3197 31.1455 60 29.2415 60C27.3375 60 25.9775 59.4558 24.8895 58.2313C23.9375 57.0068 23.3936 55.5102 23.3936 53.7415V53.4694ZM27.2015 53.7415C27.2015 54.6939 27.3375 55.5102 27.6095 56.1905C27.8815 56.7347 28.4255 57.0068 29.2415 57.0068C29.9215 57.0068 30.4655 56.7347 30.8735 56.1905C31.1455 55.6463 31.4175 54.8299 31.4175 53.7415V53.4694C31.4175 52.517 31.2815 51.7007 30.8735 51.1565C30.6015 50.6122 30.0575 50.2041 29.2415 50.2041C28.5615 50.2041 28.0175 50.4762 27.6095 51.1565C27.3375 51.7007 27.2015 52.517 27.2015 53.4694V53.7415Z" fill="#587D7B"/>
<path d="M36.9922 59.5913V43.2647H42.2961C44.3361 43.2647 45.8321 43.6729 47.0561 44.3531C48.1441 45.1695 48.6881 46.2579 48.6881 47.7545C48.6881 48.5708 48.5521 49.2511 48.1441 49.7953C47.7361 50.3396 47.1921 50.8838 46.5121 51.1559C47.4641 51.428 48.1441 51.8362 48.6881 52.5164C49.0961 53.1967 49.3681 53.877 49.3681 54.8294C49.3681 56.462 48.8241 57.6865 47.7361 58.5028C46.6481 59.3192 45.1521 59.7273 43.1121 59.7273H36.9922V59.5913ZM40.8002 50.0674H42.2961C43.2481 50.0674 43.9281 49.9314 44.3361 49.6593C44.7441 49.3872 45.0161 48.843 45.0161 48.2987C45.0161 47.6185 44.7441 47.0742 44.3361 46.8021C43.9281 46.53 43.2481 46.394 42.2961 46.394H40.8002V50.0674ZM40.8002 52.6525V56.7341H43.2481C44.0641 56.7341 44.6081 56.5981 45.0161 56.326C45.4241 56.0539 45.5601 55.5096 45.5601 54.8294C45.5601 54.1491 45.4241 53.6049 45.0161 53.1967C44.6081 52.7885 44.0641 52.6525 43.2481 52.6525H43.1121H40.8002Z" fill="#587D7B"/>
<path d="M50.8633 53.4694C50.8633 51.7007 51.4073 50.2041 52.3593 48.9796C53.4473 47.8911 54.8072 47.2109 56.7112 47.2109C58.6152 47.2109 59.9752 47.7551 61.0632 48.9796C62.1512 50.068 62.5592 51.5646 62.5592 53.4694V53.7415C62.5592 55.5102 62.0152 57.0068 61.0632 58.2313C59.9752 59.3197 58.6152 60 56.7112 60C54.8072 60 53.4473 59.4558 52.3593 58.2313C51.2713 57.1429 50.8633 55.6463 50.8633 53.7415V53.4694ZM54.6712 53.7415C54.6712 54.6939 54.8072 55.5102 55.0792 56.1905C55.3512 56.7347 55.8952 57.0068 56.7112 57.0068C57.3912 57.0068 57.9352 56.7347 58.3432 56.1905C58.6152 55.6463 58.8872 54.8299 58.8872 53.7415V53.4694C58.8872 52.517 58.7512 51.7007 58.3432 51.1565C58.0712 50.6122 57.5272 50.2041 56.7112 50.2041C56.0312 50.2041 55.4872 50.4762 55.0792 51.1565C54.8072 51.7007 54.6712 52.517 54.6712 53.4694V53.7415Z" fill="#587D7B"/>
<path d="M68.8174 51.0201L70.4494 47.4827H74.6654L71.1294 53.4691L74.8014 59.5916H70.5854L68.9534 55.9181L67.3214 59.5916H63.1055L66.7774 53.4691L63.1055 47.4827H67.3214L68.8174 51.0201Z" fill="#587D7B"/>
<path d="M49.0963 32.1086C48.8243 32.1086 48.5523 31.9726 48.2803 31.8365C47.7363 31.4284 47.7363 30.612 48.1443 30.2039C49.5043 28.5712 50.7283 26.6664 51.9523 24.4896C52.2243 23.9453 52.9043 23.6732 53.5843 23.9453C54.1283 24.2175 54.4003 24.8977 54.1283 25.578C52.9043 27.8909 51.5443 30.0678 50.0483 31.7005C49.7763 31.9726 49.3683 32.1086 49.0963 32.1086Z" fill="#587D7B"/>
<path d="M46.1043 34.6943C45.6963 34.6943 45.4243 34.5583 45.1523 34.2862C44.7443 33.7419 44.8803 33.0617 45.4243 32.6535C45.5603 32.5175 45.6963 32.3814 45.6963 32.3814C46.2403 31.9732 46.9202 31.9732 47.3282 32.5175C47.7362 33.0617 47.7362 33.7419 47.1922 34.1501C47.1922 34.1501 46.9202 34.2862 46.7842 34.5583C46.6482 34.5583 46.3763 34.6943 46.1043 34.6943Z" fill="#587D7B"/>
<path fill-rule="evenodd" clip-rule="evenodd" d="M46.2268 22.0403H57.9357C58.2077 28.2989 57.1197 33.3329 54.8078 35.7819C53.7198 37.0064 52.3598 37.5506 50.8638 37.5506H25.4321C23.8001 37.5506 22.3041 36.8703 21.2161 35.6458C18.9041 33.0608 17.8161 28.1628 18.2241 22.0403H32.7522C32.5357 21.413 32.3837 20.6898 32.3448 19.8635H17.2721C16.5922 19.8635 16.0482 20.4077 16.0482 20.9519C15.3682 28.2989 16.5922 34.1492 19.5841 37.4145C21.0801 39.0472 23.1201 39.9996 25.4321 39.9996H50.7278C53.0398 39.9996 54.9438 39.1832 56.7117 37.5506C59.5677 34.4213 60.9277 28.571 60.3837 20.9519C60.2477 20.4077 59.8397 19.8635 59.1597 19.8635H47.5648C47.1752 20.5671 46.7313 21.2931 46.2268 22.0403Z" fill="#587D7B"/>
<path d="M31.4147 31.8365C31.1427 31.8365 31.0067 31.7005 30.7347 31.5644C30.3267 31.1562 30.3267 30.612 30.5987 30.2039C31.2787 29.5236 31.8227 28.7072 32.3667 27.8909C33.4547 26.1222 34.2707 24.3535 35.0867 22.3127C35.3587 21.4963 35.7667 20.8161 36.1747 19.9997C37.2627 17.5508 38.8947 14.5576 41.6146 12.5167C42.0226 12.2446 42.7026 12.2446 42.9746 12.6528C43.2466 13.061 43.2466 13.7412 42.8386 14.0133C40.5266 15.782 39.0307 18.5031 37.9427 20.8161C37.5347 21.6324 37.2627 22.3127 36.9907 23.129C36.1747 25.0338 35.2227 27.0746 34.1347 28.9794C33.5907 29.9317 32.9107 30.7481 32.2307 31.5644C31.9587 31.7005 31.6867 31.8365 31.4147 31.8365Z" fill="#587D7B"/>
<path d="M34.1338 26.5307C33.7258 26.5307 33.3178 26.2585 33.1818 25.8504C31.8218 22.5851 31.2778 19.1837 31.4138 16.0544C31.5498 12.2449 33.4538 8.97959 36.7178 6.80272C39.0297 5.30611 41.8857 4.35373 45.1497 4.08162C45.5577 4.08162 45.9657 4.08162 46.3737 4.08162C47.4617 4.08162 48.5496 3.94557 49.5016 3.67346H49.6376C50.0456 3.5374 50.5896 3.40135 51.2696 3.5374C52.7656 3.80951 53.0376 5.44217 53.1736 6.2585V6.39455C53.8536 10.4762 52.4936 15.5102 49.6376 19.4558C47.8697 21.9048 45.4217 23.8096 42.5657 24.898C42.0217 25.0341 41.4777 24.898 41.3417 24.3538C41.2057 23.8096 41.3417 23.2653 41.8857 23.1293C44.3337 22.1769 46.5097 20.5442 48.0056 18.3674C50.4536 14.966 51.8136 10.3401 51.1336 6.80272V6.66666C51.1336 6.39455 50.9976 5.85033 50.8616 5.71428C50.7256 5.71428 50.4536 5.71428 50.1816 5.85034H50.0456C48.8216 6.12245 47.5977 6.2585 46.5097 6.2585C46.1017 6.2585 45.6937 6.2585 45.2857 6.2585C42.4297 6.39456 39.8457 7.34694 37.8058 8.57143C35.2218 10.3401 33.5898 13.1973 33.4538 16.3266C33.3178 19.1837 33.8618 22.313 35.0858 25.3062C35.2218 25.8504 35.0858 26.3946 34.5418 26.5307C34.4058 26.5307 34.2698 26.5307 34.1338 26.5307Z" fill="#587D7B"/>
</svg>
