<svg width="860" height="420" viewBox="0 0 860 420" fill="none" xmlns="http://www.w3.org/2000/svg">
<g filter="url(#filter0_d)">
<rect x="10" y="6" width="840" height="400" rx="20" fill="white"/>
<rect x="50" y="27" width="20" height="40" rx="4" fill="#5AB8AD"/>
<path d="M85.728 49.444H92.944V52.436H85.728V49.444ZM84.448 53.492H94.24V48.388H84.448V53.492ZM93.808 45.38C94.192 43.588 94.192 42.276 94.192 41.156V40.1H84.496V41.156H92.896C92.896 42.276 92.896 43.588 92.48 45.38H82.832V46.436H95.872V45.38H93.808ZM98.8468 46.308C101.071 45.924 103.183 44.724 104.063 43.028C104.927 44.724 107.055 45.924 109.279 46.308L109.791 45.268C107.263 44.9 104.783 43.252 104.783 41.364V41.284H109.279V40.228H98.7988V41.284H103.327V41.364C103.327 43.252 100.847 44.9 98.3508 45.268L98.8468 46.308ZM110.543 47.508H97.5828V48.58H103.375V53.684H104.687V48.58H110.559L110.543 47.508ZM122.734 52.66C120.478 52.66 119.15 52.1 119.15 51.124C119.15 50.148 120.478 49.588 122.734 49.588C124.974 49.588 126.318 50.148 126.318 51.124C126.318 52.1 124.974 52.66 122.734 52.66ZM122.734 48.564C119.662 48.564 117.822 49.476 117.822 51.124C117.822 52.772 119.662 53.668 122.734 53.668C125.822 53.668 127.646 52.772 127.646 51.124C127.646 49.476 125.822 48.564 122.734 48.564ZM120.75 44.756C121.342 44.852 122.014 44.916 122.734 44.916C123.47 44.916 124.142 44.852 124.734 44.756V46.436H120.75V44.756ZM119.038 42.26C119.038 41.22 120.446 40.612 122.734 40.612C125.022 40.612 126.43 41.22 126.43 42.26C126.43 43.284 125.022 43.908 122.734 43.908C120.446 43.908 119.038 43.284 119.038 42.26ZM126.03 46.436V44.404C127.134 43.956 127.774 43.22 127.774 42.26C127.774 40.58 125.854 39.588 122.734 39.588C119.63 39.588 117.694 40.58 117.694 42.26C117.694 43.236 118.318 43.956 119.454 44.42V46.436H116.238V47.492H129.23V46.436H126.03ZM131.821 40.884V41.94H137.213C136.941 45.348 135.021 48.1 131.165 49.94L131.869 51.012C136.637 48.676 138.541 45.028 138.541 40.884H131.821ZM141.437 39.332V53.684H142.749V39.332H141.437ZM154.477 40.58H153.181V43.156C153.181 45.764 151.549 48.516 149.485 49.572L150.269 50.628C151.885 49.764 153.213 47.972 153.837 45.876C154.493 47.844 155.789 49.524 157.309 50.34L158.125 49.3C156.109 48.292 154.477 45.684 154.477 43.156V40.58ZM163.069 45.156H160.701V39.348H159.389V53.684H160.701V46.244H163.069V45.156ZM170.859 52.66C168.603 52.66 167.275 52.1 167.275 51.124C167.275 50.148 168.603 49.588 170.859 49.588C173.099 49.588 174.443 50.148 174.443 51.124C174.443 52.1 173.099 52.66 170.859 52.66ZM170.859 48.564C167.787 48.564 165.947 49.476 165.947 51.124C165.947 52.772 167.787 53.668 170.859 53.668C173.947 53.668 175.771 52.772 175.771 51.124C175.771 49.476 173.947 48.564 170.859 48.564ZM168.875 44.756C169.467 44.852 170.139 44.916 170.859 44.916C171.595 44.916 172.267 44.852 172.859 44.756V46.436H168.875V44.756ZM167.163 42.26C167.163 41.22 168.571 40.612 170.859 40.612C173.147 40.612 174.555 41.22 174.555 42.26C174.555 43.284 173.147 43.908 170.859 43.908C168.571 43.908 167.163 43.284 167.163 42.26ZM174.155 46.436V44.404C175.259 43.956 175.899 43.22 175.899 42.26C175.899 40.58 173.979 39.588 170.859 39.588C167.755 39.588 165.819 40.58 165.819 42.26C165.819 43.236 166.443 43.956 167.579 44.42V46.436H164.363V47.492H177.355V46.436H174.155ZM188.058 44.196H189.946V48.708H191.21V39.332H189.946V43.124H188.058V39.604H186.81V47.396H188.058V44.196ZM179.818 40.644V41.716H184.01C183.786 44.18 182.25 46.148 179.194 47.428L179.898 48.388C183.626 46.756 185.37 44.084 185.37 40.644H179.818ZM187.098 48.068H185.786V48.692C185.786 50.596 183.434 52.196 180.938 52.596L181.45 53.636C183.578 53.252 185.578 52.132 186.442 50.516C187.322 52.132 189.322 53.252 191.45 53.636L191.978 52.596C189.45 52.196 187.098 50.596 187.098 48.692V48.068ZM206.169 44.804C203.561 44.42 201.001 42.644 201.001 40.644V39.844H199.625V40.644C199.625 42.692 197.097 44.42 194.489 44.804L195.017 45.86C197.257 45.476 199.417 44.244 200.313 42.5C201.241 44.228 203.401 45.476 205.625 45.86L206.169 44.804ZM206.793 47.412H193.833V48.5H199.625V53.7H200.937V48.5H206.809L206.793 47.412Z" fill="#4F4F4F"/>
<path d="M222.629 46.4141L224.105 33.4062H238.449V37.6426H228.271L227.639 43.1445C228.846 42.5 230.129 42.1777 231.488 42.1777C233.926 42.1777 235.836 42.9336 237.219 44.4453C238.602 45.957 239.293 48.0723 239.293 50.791C239.293 52.4434 238.941 53.9258 238.238 55.2383C237.547 56.5391 236.551 57.5527 235.25 58.2793C233.949 58.9941 232.414 59.3516 230.645 59.3516C229.098 59.3516 227.662 59.041 226.338 58.4199C225.014 57.7871 223.965 56.9023 223.191 55.7656C222.43 54.6289 222.025 53.334 221.979 51.8809H227.006C227.111 52.9473 227.48 53.7793 228.113 54.377C228.758 54.9629 229.596 55.2559 230.627 55.2559C231.775 55.2559 232.66 54.8457 233.281 54.0254C233.902 53.1934 234.213 52.0215 234.213 50.5098C234.213 49.0566 233.855 47.9434 233.141 47.1699C232.426 46.3965 231.412 46.0098 230.1 46.0098C228.893 46.0098 227.914 46.3262 227.164 46.959L226.672 47.416L222.629 46.4141ZM259.771 48.418C259.771 51.957 259.039 54.6641 257.574 56.5391C256.109 58.4141 253.965 59.3516 251.141 59.3516C248.352 59.3516 246.219 58.4316 244.742 56.5918C243.266 54.752 242.51 52.1152 242.475 48.6816V43.9707C242.475 40.3965 243.213 37.6836 244.689 35.832C246.178 33.9805 248.316 33.0547 251.105 33.0547C253.895 33.0547 256.027 33.9746 257.504 35.8145C258.98 37.6426 259.736 40.2734 259.771 43.707V48.418ZM254.691 43.25C254.691 41.1289 254.398 39.5879 253.812 38.627C253.238 37.6543 252.336 37.168 251.105 37.168C249.91 37.168 249.025 37.6309 248.451 38.5566C247.889 39.4707 247.59 40.9062 247.555 42.8633V49.0859C247.555 51.1719 247.836 52.7246 248.398 53.7441C248.973 54.752 249.887 55.2559 251.141 55.2559C252.383 55.2559 253.279 54.7695 253.83 53.7969C254.381 52.8242 254.668 51.3359 254.691 49.332V43.25ZM280.443 48.418C280.443 51.957 279.711 54.6641 278.246 56.5391C276.781 58.4141 274.637 59.3516 271.812 59.3516C269.023 59.3516 266.891 58.4316 265.414 56.5918C263.938 54.752 263.182 52.1152 263.146 48.6816V43.9707C263.146 40.3965 263.885 37.6836 265.361 35.832C266.85 33.9805 268.988 33.0547 271.777 33.0547C274.566 33.0547 276.699 33.9746 278.176 35.8145C279.652 37.6426 280.408 40.2734 280.443 43.707V48.418ZM275.363 43.25C275.363 41.1289 275.07 39.5879 274.484 38.627C273.91 37.6543 273.008 37.168 271.777 37.168C270.582 37.168 269.697 37.6309 269.123 38.5566C268.561 39.4707 268.262 40.9062 268.227 42.8633V49.0859C268.227 51.1719 268.508 52.7246 269.07 53.7441C269.645 54.752 270.559 55.2559 271.812 55.2559C273.055 55.2559 273.951 54.7695 274.502 53.7969C275.053 52.8242 275.34 51.3359 275.363 49.332V43.25ZM283.54 47.688V48.76H287.844C287.652 51.736 286.292 54.328 282.996 56.168L283.764 57.112C287.844 54.808 289.14 51.384 289.14 47.688H283.54ZM293.908 45.832V51.608H291.956V46.216H290.724V59.464H291.956V52.68H293.908V60.184H295.172V45.832H293.908Z" fill="#4F4F4F"/>
<rect x="357" y="27" width="20" height="40" rx="4" fill="#E0E0E0"/>
<path d="M392.728 49.444H399.944V52.436H392.728V49.444ZM391.448 53.492H401.24V48.388H391.448V53.492ZM400.808 45.38C401.192 43.588 401.192 42.276 401.192 41.156V40.1H391.496V41.156H399.896C399.896 42.276 399.896 43.588 399.48 45.38H389.832V46.436H402.872V45.38H400.808ZM405.847 46.308C408.071 45.924 410.183 44.724 411.063 43.028C411.927 44.724 414.055 45.924 416.279 46.308L416.791 45.268C414.263 44.9 411.783 43.252 411.783 41.364V41.284H416.279V40.228H405.799V41.284H410.327V41.364C410.327 43.252 407.847 44.9 405.351 45.268L405.847 46.308ZM417.543 47.508H404.583V48.58H410.375V53.684H411.687V48.58H417.559L417.543 47.508ZM429.734 52.66C427.478 52.66 426.15 52.1 426.15 51.124C426.15 50.148 427.478 49.588 429.734 49.588C431.974 49.588 433.318 50.148 433.318 51.124C433.318 52.1 431.974 52.66 429.734 52.66ZM429.734 48.564C426.662 48.564 424.822 49.476 424.822 51.124C424.822 52.772 426.662 53.668 429.734 53.668C432.822 53.668 434.646 52.772 434.646 51.124C434.646 49.476 432.822 48.564 429.734 48.564ZM427.75 44.756C428.342 44.852 429.014 44.916 429.734 44.916C430.47 44.916 431.142 44.852 431.734 44.756V46.436H427.75V44.756ZM426.038 42.26C426.038 41.22 427.446 40.612 429.734 40.612C432.022 40.612 433.43 41.22 433.43 42.26C433.43 43.284 432.022 43.908 429.734 43.908C427.446 43.908 426.038 43.284 426.038 42.26ZM433.03 46.436V44.404C434.134 43.956 434.774 43.22 434.774 42.26C434.774 40.58 432.854 39.588 429.734 39.588C426.63 39.588 424.694 40.58 424.694 42.26C424.694 43.236 425.318 43.956 426.454 44.42V46.436H423.238V47.492H436.23V46.436H433.03ZM438.821 40.884V41.94H444.213C443.941 45.348 442.021 48.1 438.165 49.94L438.869 51.012C443.637 48.676 445.541 45.028 445.541 40.884H438.821ZM448.437 39.332V53.684H449.749V39.332H448.437ZM469.013 44.804C466.405 44.42 463.845 42.644 463.845 40.644V39.844H462.469V40.644C462.469 42.692 459.941 44.42 457.333 44.804L457.861 45.86C460.101 45.476 462.261 44.244 463.157 42.5C464.085 44.228 466.245 45.476 468.469 45.86L469.013 44.804ZM469.637 47.412H456.677V48.5H462.469V53.7H463.781V48.5H469.653L469.637 47.412ZM472.003 40.884V41.94H477.235C476.995 45.3 475.219 48.036 471.363 49.924L472.083 50.948C476.851 48.596 478.547 44.964 478.547 40.884H472.003ZM481.875 39.348V45.092H478.515V46.164H481.875V53.684H483.187V39.348H481.875ZM495.058 44.196H496.946V48.708H498.21V39.332H496.946V43.124H495.058V39.604H493.81V47.396H495.058V44.196ZM486.818 40.644V41.716H491.01C490.786 44.18 489.25 46.148 486.194 47.428L486.898 48.388C490.626 46.756 492.37 44.084 492.37 40.644H486.818ZM494.098 48.068H492.786V48.692C492.786 50.596 490.434 52.196 487.938 52.596L488.45 53.636C490.578 53.252 492.578 52.132 493.442 50.516C494.322 52.132 496.322 53.252 498.45 53.636L498.978 52.596C496.45 52.196 494.098 50.596 494.098 48.692V48.068ZM513.169 44.804C510.561 44.42 508.001 42.644 508.001 40.644V39.844H506.625V40.644C506.625 42.692 504.097 44.42 501.489 44.804L502.017 45.86C504.257 45.476 506.417 44.244 507.313 42.5C508.241 44.228 510.401 45.476 512.625 45.86L513.169 44.804ZM513.793 47.412H500.833V48.5H506.625V53.7H507.937V48.5H513.809L513.793 47.412Z" fill="#4F4F4F"/>
<path d="M546.416 59H528.873V55.5195L537.152 46.6953C538.289 45.4531 539.127 44.3691 539.666 43.4434C540.217 42.5176 540.492 41.6387 540.492 40.8066C540.492 39.6699 540.205 38.7793 539.631 38.1348C539.057 37.4785 538.236 37.1504 537.17 37.1504C536.021 37.1504 535.113 37.5488 534.445 38.3457C533.789 39.1309 533.461 40.168 533.461 41.457H528.363C528.363 39.8984 528.732 38.4746 529.471 37.1855C530.221 35.8965 531.275 34.8887 532.635 34.1621C533.994 33.4238 535.535 33.0547 537.258 33.0547C539.895 33.0547 541.939 33.6875 543.393 34.9531C544.857 36.2188 545.59 38.0059 545.59 40.3145C545.59 41.5801 545.262 42.8691 544.605 44.1816C543.949 45.4941 542.824 47.0234 541.23 48.7695L535.412 54.9043H546.416V59ZM566.227 40.209C566.227 41.4512 565.916 42.5527 565.295 43.5137C564.674 44.4746 563.818 45.2422 562.729 45.8164C563.971 46.4141 564.955 47.2402 565.682 48.2949C566.408 49.3379 566.771 50.5684 566.771 51.9863C566.771 54.2598 565.998 56.0586 564.451 57.3828C562.904 58.6953 560.801 59.3516 558.141 59.3516C555.48 59.3516 553.371 58.6895 551.812 57.3652C550.254 56.041 549.475 54.248 549.475 51.9863C549.475 50.5684 549.838 49.332 550.564 48.2773C551.291 47.2227 552.27 46.4023 553.5 45.8164C552.41 45.2422 551.555 44.4746 550.934 43.5137C550.324 42.5527 550.02 41.4512 550.02 40.209C550.02 38.0293 550.746 36.2949 552.199 35.0059C553.652 33.7051 555.627 33.0547 558.123 33.0547C560.607 33.0547 562.576 33.6992 564.029 34.9883C565.494 36.2656 566.227 38.0059 566.227 40.209ZM561.674 51.6172C561.674 50.5039 561.352 49.6133 560.707 48.9453C560.062 48.2773 559.195 47.9434 558.105 47.9434C557.027 47.9434 556.166 48.2773 555.521 48.9453C554.877 49.6016 554.555 50.4922 554.555 51.6172C554.555 52.707 554.871 53.5859 555.504 54.2539C556.137 54.9219 557.016 55.2559 558.141 55.2559C559.242 55.2559 560.104 54.9336 560.725 54.2891C561.357 53.6445 561.674 52.7539 561.674 51.6172ZM561.146 40.4551C561.146 39.459 560.883 38.6621 560.355 38.0645C559.828 37.4551 559.084 37.1504 558.123 37.1504C557.174 37.1504 556.436 37.4434 555.908 38.0293C555.381 38.6152 555.117 39.4238 555.117 40.4551C555.117 41.4746 555.381 42.2949 555.908 42.916C556.436 43.5371 557.18 43.8477 558.141 43.8477C559.102 43.8477 559.84 43.5371 560.355 42.916C560.883 42.2949 561.146 41.4746 561.146 40.4551ZM587.443 48.418C587.443 51.957 586.711 54.6641 585.246 56.5391C583.781 58.4141 581.637 59.3516 578.812 59.3516C576.023 59.3516 573.891 58.4316 572.414 56.5918C570.938 54.752 570.182 52.1152 570.146 48.6816V43.9707C570.146 40.3965 570.885 37.6836 572.361 35.832C573.85 33.9805 575.988 33.0547 578.777 33.0547C581.566 33.0547 583.699 33.9746 585.176 35.8145C586.652 37.6426 587.408 40.2734 587.443 43.707V48.418ZM582.363 43.25C582.363 41.1289 582.07 39.5879 581.484 38.627C580.91 37.6543 580.008 37.168 578.777 37.168C577.582 37.168 576.697 37.6309 576.123 38.5566C575.561 39.4707 575.262 40.9062 575.227 42.8633V49.0859C575.227 51.1719 575.508 52.7246 576.07 53.7441C576.645 54.752 577.559 55.2559 578.812 55.2559C580.055 55.2559 580.951 54.7695 581.502 53.7969C582.053 52.8242 582.34 51.3359 582.363 49.332V43.25ZM590.54 47.688V48.76H594.844C594.652 51.736 593.292 54.328 589.996 56.168L590.764 57.112C594.844 54.808 596.14 51.384 596.14 47.688H590.54ZM600.908 45.832V51.608H598.956V46.216H597.724V59.464H598.956V52.68H600.908V60.184H602.172V45.832H600.908Z" fill="#4F4F4F"/>
<rect x="703.5" y="27.5" width="122" height="39" rx="19.5" fill="white" fill-opacity="0.5"/>
<path d="M727.273 48.9141L727.492 50.4141L727.812 49.0625L730.062 41.125H731.328L733.523 49.0625L733.836 50.4375L734.078 48.9062L735.844 41.125H737.352L734.594 52.5H733.227L730.883 44.2109L730.703 43.3438L730.523 44.2109L728.094 52.5H726.727L723.977 41.125H725.477L727.273 48.9141ZM742.055 52.6562C740.909 52.6562 739.977 52.2812 739.258 51.5312C738.539 50.776 738.18 49.7682 738.18 48.5078V48.2422C738.18 47.4036 738.339 46.6562 738.656 46C738.979 45.3385 739.427 44.8229 740 44.4531C740.578 44.0781 741.203 43.8906 741.875 43.8906C742.974 43.8906 743.828 44.2526 744.438 44.9766C745.047 45.7005 745.352 46.737 745.352 48.0859V48.6875H739.625C739.646 49.5208 739.888 50.1953 740.352 50.7109C740.82 51.2214 741.414 51.4766 742.133 51.4766C742.643 51.4766 743.076 51.3724 743.43 51.1641C743.784 50.9557 744.094 50.6797 744.359 50.3359L745.242 51.0234C744.534 52.112 743.471 52.6562 742.055 52.6562ZM741.875 45.0781C741.292 45.0781 740.802 45.2917 740.406 45.7188C740.01 46.1406 739.766 46.7344 739.672 47.5H743.906V47.3906C743.865 46.6562 743.667 46.0885 743.312 45.6875C742.958 45.2812 742.479 45.0781 741.875 45.0781ZM750.539 52.6562C749.393 52.6562 748.461 52.2812 747.742 51.5312C747.023 50.776 746.664 49.7682 746.664 48.5078V48.2422C746.664 47.4036 746.823 46.6562 747.141 46C747.464 45.3385 747.911 44.8229 748.484 44.4531C749.062 44.0781 749.688 43.8906 750.359 43.8906C751.458 43.8906 752.312 44.2526 752.922 44.9766C753.531 45.7005 753.836 46.737 753.836 48.0859V48.6875H748.109C748.13 49.5208 748.372 50.1953 748.836 50.7109C749.305 51.2214 749.898 51.4766 750.617 51.4766C751.128 51.4766 751.56 51.3724 751.914 51.1641C752.268 50.9557 752.578 50.6797 752.844 50.3359L753.727 51.0234C753.018 52.112 751.956 52.6562 750.539 52.6562ZM750.359 45.0781C749.776 45.0781 749.286 45.2917 748.891 45.7188C748.495 46.1406 748.25 46.7344 748.156 47.5H752.391V47.3906C752.349 46.6562 752.151 46.0885 751.797 45.6875C751.443 45.2812 750.964 45.0781 750.359 45.0781ZM757.875 48.5859L756.969 49.5312V52.5H755.523V40.5H756.969V47.7578L757.742 46.8281L760.375 44.0469H762.133L758.844 47.5781L762.516 52.5H760.82L757.875 48.5859ZM765.195 52.5H763.75V40.5H765.195V52.5ZM770.281 50.3828L772.25 44.0469H773.797L770.398 53.8047C769.872 55.2109 769.036 55.9141 767.891 55.9141L767.617 55.8906L767.078 55.7891V54.6172L767.469 54.6484C767.958 54.6484 768.339 54.5495 768.609 54.3516C768.885 54.1536 769.112 53.7917 769.289 53.2656L769.609 52.4062L766.594 44.0469H768.172L770.281 50.3828Z" fill="#4F4F4F"/>
<path d="M787 44L793 50L799 44" stroke="#4F4F4F" stroke-width="2" stroke-linecap="round" stroke-linejoin="round"/>
<rect x="703.5" y="27.5" width="122" height="39" rx="19.5" stroke="#BDBDBD"/>
<path d="M101.711 361H100.258V351.367L97.3438 352.438V351.125L101.484 349.57H101.711V361ZM108.047 354.609H109.133C109.815 354.599 110.352 354.419 110.742 354.07C111.133 353.721 111.328 353.25 111.328 352.656C111.328 351.323 110.664 350.656 109.336 350.656C108.711 350.656 108.211 350.836 107.836 351.195C107.466 351.549 107.281 352.021 107.281 352.609H105.836C105.836 351.708 106.164 350.961 106.82 350.367C107.482 349.768 108.32 349.469 109.336 349.469C110.409 349.469 111.25 349.753 111.859 350.32C112.469 350.888 112.773 351.677 112.773 352.688C112.773 353.182 112.612 353.661 112.289 354.125C111.971 354.589 111.536 354.935 110.984 355.164C111.609 355.362 112.091 355.69 112.43 356.148C112.773 356.607 112.945 357.167 112.945 357.828C112.945 358.849 112.612 359.659 111.945 360.258C111.279 360.857 110.411 361.156 109.344 361.156C108.276 361.156 107.406 360.867 106.734 360.289C106.068 359.711 105.734 358.948 105.734 358H107.188C107.188 358.599 107.383 359.078 107.773 359.438C108.164 359.797 108.688 359.977 109.344 359.977C110.042 359.977 110.576 359.794 110.945 359.43C111.315 359.065 111.5 358.542 111.5 357.859C111.5 357.198 111.297 356.69 110.891 356.336C110.484 355.982 109.898 355.799 109.133 355.789H108.047V354.609ZM106.009 373.456V374.736H108.617V375.168H110.729V366.64H108.617V373.456H106.009ZM103.017 368.24C104.073 368.24 104.729 368.512 104.729 369.072C104.729 369.616 104.073 369.888 103.017 369.888C101.961 369.888 101.289 369.616 101.289 369.072C101.289 368.512 101.961 368.24 103.017 368.24ZM103.017 371.248C105.209 371.248 106.697 370.4 106.697 369.072C106.697 367.712 105.209 366.864 103.017 366.864C100.809 366.864 99.3366 367.712 99.3366 369.072C99.3366 370.4 100.809 371.248 103.017 371.248ZM101.897 375.184H104.009V373.168C105.305 373.104 106.601 372.992 107.881 372.816L107.753 371.504C104.665 371.84 101.161 371.84 98.3446 371.84L98.5526 373.28C99.5926 373.28 100.729 373.28 101.897 373.264V375.184ZM102.537 379.824V379.072H110.729V375.616H100.441V377.04H108.649V377.744H100.457V381.264H111.065V379.824H102.537Z" fill="#828282"/>
<rect x="106" y="306" width="20" height="20" rx="4" fill="#E0E0E0"/>
<rect x="86" y="266" width="20" height="60" rx="4" fill="#5AB8AD"/>
<path d="M317.711 361H316.258V351.367L313.344 352.438V351.125L317.484 349.57H317.711V361ZM322.609 355.297L323.188 349.625H329.016V350.961H324.414L324.07 354.062C324.628 353.734 325.26 353.57 325.969 353.57C327.005 353.57 327.828 353.914 328.438 354.602C329.047 355.284 329.352 356.208 329.352 357.375C329.352 358.547 329.034 359.471 328.398 360.148C327.768 360.82 326.885 361.156 325.75 361.156C324.745 361.156 323.924 360.878 323.289 360.32C322.654 359.763 322.292 358.992 322.203 358.008H323.57C323.659 358.659 323.891 359.151 324.266 359.484C324.641 359.812 325.135 359.977 325.75 359.977C326.422 359.977 326.948 359.747 327.328 359.289C327.714 358.831 327.906 358.198 327.906 357.391C327.906 356.63 327.698 356.021 327.281 355.562C326.87 355.099 326.32 354.867 325.633 354.867C325.003 354.867 324.508 355.005 324.148 355.281L323.766 355.594L322.609 355.297ZM326.841 372.304C324.233 371.92 321.673 370.144 321.673 368.144V367.344H320.297V368.144C320.297 370.192 317.769 371.92 315.161 372.304L315.689 373.36C317.929 372.976 320.089 371.744 320.985 370C321.913 371.728 324.073 372.976 326.297 373.36L326.841 372.304ZM327.465 374.912H314.505V376H320.297V381.2H321.609V376H327.481L327.465 374.912Z" fill="#828282"/>
<rect x="322" y="286" width="20" height="40" rx="4" fill="#E0E0E0"/>
<rect x="302" y="246" width="20" height="80" rx="4" fill="#5AB8AD"/>
<path d="M533.711 361H532.258V351.367L529.344 352.438V351.125L533.484 349.57H533.711V361ZM545.289 350.438L540.578 361H539.062L543.758 350.812H537.602V349.625H545.289V350.438ZM533.369 376.944H540.585V379.936H533.369V376.944ZM532.089 380.992H541.881V375.888H532.089V380.992ZM541.449 372.88C541.833 371.088 541.833 369.776 541.833 368.656V367.6H532.137V368.656H540.537C540.537 369.776 540.537 371.088 540.121 372.88H530.473V373.936H543.513V372.88H541.449Z" fill="#828282"/>
<rect x="538" y="306" width="20" height="20" rx="4" fill="#E0E0E0"/>
<rect x="518" y="286" width="20" height="40" rx="4" fill="#5AB8AD"/>
<path d="M749.711 361H748.258V351.367L745.344 352.438V351.125L749.484 349.57H749.711V361ZM759.484 356C759.182 356.359 758.82 356.648 758.398 356.867C757.982 357.086 757.523 357.195 757.023 357.195C756.367 357.195 755.794 357.034 755.305 356.711C754.82 356.388 754.445 355.935 754.18 355.352C753.914 354.763 753.781 354.115 753.781 353.406C753.781 352.646 753.924 351.961 754.211 351.352C754.503 350.742 754.914 350.276 755.445 349.953C755.977 349.63 756.596 349.469 757.305 349.469C758.43 349.469 759.315 349.891 759.961 350.734C760.612 351.573 760.938 352.719 760.938 354.172V354.594C760.938 356.807 760.5 358.424 759.625 359.445C758.75 360.461 757.43 360.982 755.664 361.008H755.383V359.789H755.688C756.88 359.768 757.797 359.458 758.438 358.859C759.078 358.255 759.427 357.302 759.484 356ZM757.258 356C757.742 356 758.188 355.852 758.594 355.555C759.005 355.258 759.305 354.891 759.492 354.453V353.875C759.492 352.927 759.286 352.156 758.875 351.562C758.464 350.969 757.943 350.672 757.312 350.672C756.677 350.672 756.167 350.917 755.781 351.406C755.396 351.891 755.203 352.531 755.203 353.328C755.203 354.104 755.388 354.745 755.758 355.25C756.133 355.75 756.633 356 757.258 356ZM758.265 366.832H756.953V374.192H758.265V366.832ZM748.089 370.544C748.089 369.296 749.129 368.416 750.521 368.416C751.929 368.416 752.953 369.296 752.953 370.544C752.953 371.776 751.929 372.656 750.521 372.656C749.129 372.656 748.089 371.776 748.089 370.544ZM754.233 370.544C754.233 368.64 752.665 367.344 750.521 367.344C748.377 367.344 746.825 368.64 746.825 370.544C746.825 372.432 748.377 373.712 750.521 373.712C752.665 373.712 754.233 372.432 754.233 370.544ZM750.297 379.952V378.368H758.265V374.896H748.969V375.936H756.969V377.392H749.001V380.992H758.745V379.952H750.297Z" fill="#828282"/>
<rect x="754" y="271" width="20" height="55" rx="4" fill="#E0E0E0"/>
<rect x="734" y="186" width="20" height="140" rx="4" fill="#5AB8AD"/>
<path d="M209.711 361H208.258V351.367L205.344 352.438V351.125L209.484 349.57H209.711V361ZM220.047 357.18H221.625V358.359H220.047V361H218.594V358.359H213.414V357.508L218.508 349.625H220.047V357.18ZM215.055 357.18H218.594V351.602L218.422 351.914L215.055 357.18ZM215.113 368.256H211.849V366.704H209.737V368.256H206.441V369.92H215.113V368.256ZM209.193 373.28C209.193 372.512 209.833 372.096 210.793 372.096C211.753 372.096 212.393 372.512 212.393 373.28C212.393 374.048 211.753 374.464 210.793 374.464C209.833 374.464 209.193 374.048 209.193 373.28ZM211.849 375.936C213.385 375.632 214.393 374.624 214.393 373.28C214.393 371.616 212.905 370.496 210.793 370.496C208.681 370.496 207.193 371.616 207.193 373.28C207.193 374.624 208.201 375.632 209.737 375.936V377.184C208.441 377.216 207.225 377.216 206.169 377.216L206.425 378.928C208.921 378.928 212.233 378.928 215.337 378.32L215.177 376.8C214.121 376.96 212.985 377.04 211.849 377.104V375.936ZM219.881 372.64H218.041V366.64H215.929V381.376H218.041V374.384H219.881V372.64Z" fill="#828282"/>
<path d="M661.406 95H653.953V93.9609L657.891 89.5859C658.474 88.9245 658.875 88.388 659.094 87.9766C659.318 87.5599 659.43 87.1302 659.43 86.6875C659.43 86.0938 659.25 85.6068 658.891 85.2266C658.531 84.8464 658.052 84.6562 657.453 84.6562C656.734 84.6562 656.174 84.862 655.773 85.2734C655.378 85.6797 655.18 86.2474 655.18 86.9766H653.734C653.734 85.9297 654.07 85.0833 654.742 84.4375C655.419 83.7917 656.323 83.4688 657.453 83.4688C658.51 83.4688 659.346 83.7474 659.961 84.3047C660.576 84.8568 660.883 85.5938 660.883 86.5156C660.883 87.6354 660.169 88.9688 658.742 90.5156L655.695 93.8203H661.406V95ZM670.07 90.1484C670.07 91.8411 669.781 93.099 669.203 93.9219C668.625 94.7448 667.721 95.1562 666.492 95.1562C665.279 95.1562 664.38 94.7552 663.797 93.9531C663.214 93.1458 662.911 91.9427 662.891 90.3438V88.4141C662.891 86.7422 663.18 85.5 663.758 84.6875C664.336 83.875 665.242 83.4688 666.477 83.4688C667.701 83.4688 668.602 83.862 669.18 84.6484C669.758 85.4297 670.055 86.638 670.07 88.2734V90.1484ZM668.625 88.1719C668.625 86.9479 668.453 86.0573 668.109 85.5C667.766 84.9375 667.221 84.6562 666.477 84.6562C665.737 84.6562 665.198 84.9349 664.859 85.4922C664.521 86.0495 664.346 86.9062 664.336 88.0625V90.375C664.336 91.6042 664.513 92.513 664.867 93.1016C665.227 93.6849 665.768 93.9766 666.492 93.9766C667.206 93.9766 667.734 93.7005 668.078 93.1484C668.427 92.5964 668.609 91.7266 668.625 90.5391V88.1719ZM679.375 95H671.922V93.9609L675.859 89.5859C676.443 88.9245 676.844 88.388 677.062 87.9766C677.286 87.5599 677.398 87.1302 677.398 86.6875C677.398 86.0938 677.219 85.6068 676.859 85.2266C676.5 84.8464 676.021 84.6562 675.422 84.6562C674.703 84.6562 674.143 84.862 673.742 85.2734C673.346 85.6797 673.148 86.2474 673.148 86.9766H671.703C671.703 85.9297 672.039 85.0833 672.711 84.4375C673.388 83.7917 674.292 83.4688 675.422 83.4688C676.479 83.4688 677.315 83.7474 677.93 84.3047C678.544 84.8568 678.852 85.5938 678.852 86.5156C678.852 87.6354 678.138 88.9688 676.711 90.5156L673.664 93.8203H679.375V95ZM688.039 90.1484C688.039 91.8411 687.75 93.099 687.172 93.9219C686.594 94.7448 685.69 95.1562 684.461 95.1562C683.247 95.1562 682.349 94.7552 681.766 93.9531C681.182 93.1458 680.88 91.9427 680.859 90.3438V88.4141C680.859 86.7422 681.148 85.5 681.727 84.6875C682.305 83.875 683.211 83.4688 684.445 83.4688C685.669 83.4688 686.57 83.862 687.148 84.6484C687.727 85.4297 688.023 86.638 688.039 88.2734V90.1484ZM686.594 88.1719C686.594 86.9479 686.422 86.0573 686.078 85.5C685.734 84.9375 685.19 84.6562 684.445 84.6562C683.706 84.6562 683.167 84.9349 682.828 85.4922C682.49 86.0495 682.315 86.9062 682.305 88.0625V90.375C682.305 91.6042 682.482 92.513 682.836 93.1016C683.195 93.6849 683.737 93.9766 684.461 93.9766C685.174 93.9766 685.703 93.7005 686.047 93.1484C686.396 92.5964 686.578 91.7266 686.594 90.5391V88.1719ZM690.07 94.2422C690.07 93.9922 690.143 93.7839 690.289 93.6172C690.44 93.4505 690.664 93.3672 690.961 93.3672C691.258 93.3672 691.482 93.4505 691.633 93.6172C691.789 93.7839 691.867 93.9922 691.867 94.2422C691.867 94.4818 691.789 94.6823 691.633 94.8438C691.482 95.0052 691.258 95.0859 690.961 95.0859C690.664 95.0859 690.44 95.0052 690.289 94.8438C690.143 94.6823 690.07 94.4818 690.07 94.2422ZM701.242 90.1484C701.242 91.8411 700.953 93.099 700.375 93.9219C699.797 94.7448 698.893 95.1562 697.664 95.1562C696.451 95.1562 695.552 94.7552 694.969 93.9531C694.385 93.1458 694.083 91.9427 694.062 90.3438V88.4141C694.062 86.7422 694.352 85.5 694.93 84.6875C695.508 83.875 696.414 83.4688 697.648 83.4688C698.872 83.4688 699.773 83.862 700.352 84.6484C700.93 85.4297 701.227 86.638 701.242 88.2734V90.1484ZM699.797 88.1719C699.797 86.9479 699.625 86.0573 699.281 85.5C698.938 84.9375 698.393 84.6562 697.648 84.6562C696.909 84.6562 696.37 84.9349 696.031 85.4922C695.693 86.0495 695.518 86.9062 695.508 88.0625V90.375C695.508 91.6042 695.685 92.513 696.039 93.1016C696.398 93.6849 696.94 93.9766 697.664 93.9766C698.378 93.9766 698.906 93.7005 699.25 93.1484C699.599 92.5964 699.781 91.7266 699.797 90.5391V88.1719ZM710.438 84.4375L705.727 95H704.211L708.906 84.8125H702.75V83.625H710.438V84.4375ZM712.258 94.2422C712.258 93.9922 712.331 93.7839 712.477 93.6172C712.628 93.4505 712.852 93.3672 713.148 93.3672C713.445 93.3672 713.669 93.4505 713.82 93.6172C713.977 93.7839 714.055 93.9922 714.055 94.2422C714.055 94.4818 713.977 94.6823 713.82 94.8438C713.669 95.0052 713.445 95.0859 713.148 95.0859C712.852 95.0859 712.628 95.0052 712.477 94.8438C712.331 94.6823 712.258 94.4818 712.258 94.2422ZM721.047 95H719.594V85.3672L716.68 86.4375V85.125L720.82 83.5703H721.047V95ZM727.383 88.6094H728.469C729.151 88.599 729.688 88.4193 730.078 88.0703C730.469 87.7214 730.664 87.25 730.664 86.6562C730.664 85.3229 730 84.6562 728.672 84.6562C728.047 84.6562 727.547 84.8359 727.172 85.1953C726.802 85.5495 726.617 86.0208 726.617 86.6094H725.172C725.172 85.7083 725.5 84.9609 726.156 84.3672C726.818 83.7682 727.656 83.4688 728.672 83.4688C729.745 83.4688 730.586 83.7526 731.195 84.3203C731.805 84.888 732.109 85.6771 732.109 86.6875C732.109 87.1823 731.948 87.6615 731.625 88.125C731.307 88.5885 730.872 88.9349 730.32 89.1641C730.945 89.362 731.427 89.6901 731.766 90.1484C732.109 90.6068 732.281 91.1667 732.281 91.8281C732.281 92.849 731.948 93.6589 731.281 94.2578C730.615 94.8568 729.747 95.1562 728.68 95.1562C727.612 95.1562 726.742 94.8672 726.07 94.2891C725.404 93.7109 725.07 92.9479 725.07 92H726.523C726.523 92.599 726.719 93.0781 727.109 93.4375C727.5 93.7969 728.023 93.9766 728.68 93.9766C729.378 93.9766 729.911 93.7943 730.281 93.4297C730.651 93.0651 730.836 92.5417 730.836 91.8594C730.836 91.1979 730.633 90.6901 730.227 90.3359C729.82 89.9818 729.234 89.7995 728.469 89.7891H727.383V88.6094ZM741.391 90.7578H737.578V89.5781H741.391V90.7578ZM754.078 95H746.625V93.9609L750.562 89.5859C751.146 88.9245 751.547 88.388 751.766 87.9766C751.99 87.5599 752.102 87.1302 752.102 86.6875C752.102 86.0938 751.922 85.6068 751.562 85.2266C751.203 84.8464 750.724 84.6562 750.125 84.6562C749.406 84.6562 748.846 84.862 748.445 85.2734C748.049 85.6797 747.852 86.2474 747.852 86.9766H746.406C746.406 85.9297 746.742 85.0833 747.414 84.4375C748.091 83.7917 748.995 83.4688 750.125 83.4688C751.182 83.4688 752.018 83.7474 752.633 84.3047C753.247 84.8568 753.555 85.5938 753.555 86.5156C753.555 87.6354 752.841 88.9688 751.414 90.5156L748.367 93.8203H754.078V95ZM762.742 90.1484C762.742 91.8411 762.453 93.099 761.875 93.9219C761.297 94.7448 760.393 95.1562 759.164 95.1562C757.951 95.1562 757.052 94.7552 756.469 93.9531C755.885 93.1458 755.583 91.9427 755.562 90.3438V88.4141C755.562 86.7422 755.852 85.5 756.43 84.6875C757.008 83.875 757.914 83.4688 759.148 83.4688C760.372 83.4688 761.273 83.862 761.852 84.6484C762.43 85.4297 762.727 86.638 762.742 88.2734V90.1484ZM761.297 88.1719C761.297 86.9479 761.125 86.0573 760.781 85.5C760.438 84.9375 759.893 84.6562 759.148 84.6562C758.409 84.6562 757.87 84.9349 757.531 85.4922C757.193 86.0495 757.018 86.9062 757.008 88.0625V90.375C757.008 91.6042 757.185 92.513 757.539 93.1016C757.898 93.6849 758.44 93.9766 759.164 93.9766C759.878 93.9766 760.406 93.7005 760.75 93.1484C761.099 92.5964 761.281 91.7266 761.297 90.5391V88.1719ZM772.047 95H764.594V93.9609L768.531 89.5859C769.115 88.9245 769.516 88.388 769.734 87.9766C769.958 87.5599 770.07 87.1302 770.07 86.6875C770.07 86.0938 769.891 85.6068 769.531 85.2266C769.172 84.8464 768.693 84.6562 768.094 84.6562C767.375 84.6562 766.815 84.862 766.414 85.2734C766.018 85.6797 765.82 86.2474 765.82 86.9766H764.375C764.375 85.9297 764.711 85.0833 765.383 84.4375C766.06 83.7917 766.964 83.4688 768.094 83.4688C769.151 83.4688 769.987 83.7474 770.602 84.3047C771.216 84.8568 771.523 85.5938 771.523 86.5156C771.523 87.6354 770.81 88.9688 769.383 90.5156L766.336 93.8203H772.047V95ZM780.711 90.1484C780.711 91.8411 780.422 93.099 779.844 93.9219C779.266 94.7448 778.362 95.1562 777.133 95.1562C775.919 95.1562 775.021 94.7552 774.438 93.9531C773.854 93.1458 773.552 91.9427 773.531 90.3438V88.4141C773.531 86.7422 773.82 85.5 774.398 84.6875C774.977 83.875 775.883 83.4688 777.117 83.4688C778.341 83.4688 779.242 83.862 779.82 84.6484C780.398 85.4297 780.695 86.638 780.711 88.2734V90.1484ZM779.266 88.1719C779.266 86.9479 779.094 86.0573 778.75 85.5C778.406 84.9375 777.862 84.6562 777.117 84.6562C776.378 84.6562 775.839 84.9349 775.5 85.4922C775.161 86.0495 774.987 86.9062 774.977 88.0625V90.375C774.977 91.6042 775.154 92.513 775.508 93.1016C775.867 93.6849 776.409 93.9766 777.133 93.9766C777.846 93.9766 778.375 93.7005 778.719 93.1484C779.068 92.5964 779.25 91.7266 779.266 90.5391V88.1719ZM782.742 94.2422C782.742 93.9922 782.815 93.7839 782.961 93.6172C783.112 93.4505 783.336 93.3672 783.633 93.3672C783.93 93.3672 784.154 93.4505 784.305 93.6172C784.461 93.7839 784.539 93.9922 784.539 94.2422C784.539 94.4818 784.461 94.6823 784.305 94.8438C784.154 95.0052 783.93 95.0859 783.633 95.0859C783.336 95.0859 783.112 95.0052 782.961 94.8438C782.815 94.6823 782.742 94.4818 782.742 94.2422ZM793.914 90.1484C793.914 91.8411 793.625 93.099 793.047 93.9219C792.469 94.7448 791.565 95.1562 790.336 95.1562C789.122 95.1562 788.224 94.7552 787.641 93.9531C787.057 93.1458 786.755 91.9427 786.734 90.3438V88.4141C786.734 86.7422 787.023 85.5 787.602 84.6875C788.18 83.875 789.086 83.4688 790.32 83.4688C791.544 83.4688 792.445 83.862 793.023 84.6484C793.602 85.4297 793.898 86.638 793.914 88.2734V90.1484ZM792.469 88.1719C792.469 86.9479 792.297 86.0573 791.953 85.5C791.609 84.9375 791.065 84.6562 790.32 84.6562C789.581 84.6562 789.042 84.9349 788.703 85.4922C788.365 86.0495 788.19 86.9062 788.18 88.0625V90.375C788.18 91.6042 788.357 92.513 788.711 93.1016C789.07 93.6849 789.612 93.9766 790.336 93.9766C791.049 93.9766 791.578 93.7005 791.922 93.1484C792.271 92.5964 792.453 91.7266 792.469 90.5391V88.1719ZM803.109 84.4375L798.398 95H796.883L801.578 84.8125H795.422V83.625H803.109V84.4375ZM804.93 94.2422C804.93 93.9922 805.003 93.7839 805.148 93.6172C805.299 93.4505 805.523 93.3672 805.82 93.3672C806.117 93.3672 806.341 93.4505 806.492 93.6172C806.648 93.7839 806.727 93.9922 806.727 94.2422C806.727 94.4818 806.648 94.6823 806.492 94.8438C806.341 95.0052 806.117 95.0859 805.82 95.0859C805.523 95.0859 805.299 95.0052 805.148 94.8438C805.003 94.6823 804.93 94.4818 804.93 94.2422ZM813.719 95H812.266V85.3672L809.352 86.4375V85.125L813.492 83.5703H813.719V95ZM823.492 90C823.19 90.3594 822.828 90.6484 822.406 90.8672C821.99 91.0859 821.531 91.1953 821.031 91.1953C820.375 91.1953 819.802 91.0339 819.312 90.7109C818.828 90.388 818.453 89.9349 818.188 89.3516C817.922 88.763 817.789 88.1146 817.789 87.4062C817.789 86.6458 817.932 85.9609 818.219 85.3516C818.51 84.7422 818.922 84.276 819.453 83.9531C819.984 83.6302 820.604 83.4688 821.312 83.4688C822.438 83.4688 823.323 83.8906 823.969 84.7344C824.62 85.5729 824.945 86.7188 824.945 88.1719V88.5938C824.945 90.8073 824.508 92.4245 823.633 93.4453C822.758 94.4609 821.438 94.9818 819.672 95.0078H819.391V93.7891H819.695C820.888 93.7682 821.805 93.4583 822.445 92.8594C823.086 92.2552 823.435 91.3021 823.492 90ZM821.266 90C821.75 90 822.195 89.8516 822.602 89.5547C823.013 89.2578 823.312 88.8906 823.5 88.4531V87.875C823.5 86.9271 823.294 86.1562 822.883 85.5625C822.471 84.9688 821.951 84.6719 821.32 84.6719C820.685 84.6719 820.174 84.9167 819.789 85.4062C819.404 85.8906 819.211 86.5312 819.211 87.3281C819.211 88.1042 819.396 88.7448 819.766 89.25C820.141 89.75 820.641 90 821.266 90Z" fill="#828282"/>
<rect x="214" y="246" width="20" height="80" rx="4" fill="#E0E0E0"/>
<rect x="194" y="206" width="20" height="120" rx="4" fill="#5AB8AD"/>
<path d="M425.711 361H424.258V351.367L421.344 352.438V351.125L425.484 349.57H425.711V361ZM435.617 349.617V350.844H435.352C434.227 350.865 433.331 351.198 432.664 351.844C431.997 352.49 431.612 353.398 431.508 354.57C432.107 353.883 432.924 353.539 433.961 353.539C434.951 353.539 435.74 353.888 436.328 354.586C436.922 355.284 437.219 356.185 437.219 357.289C437.219 358.461 436.898 359.398 436.258 360.102C435.622 360.805 434.768 361.156 433.695 361.156C432.607 361.156 431.724 360.74 431.047 359.906C430.37 359.068 430.031 357.99 430.031 356.672V356.117C430.031 354.023 430.477 352.424 431.367 351.32C432.263 350.211 433.594 349.643 435.359 349.617H435.617ZM433.719 354.742C433.224 354.742 432.768 354.891 432.352 355.188C431.935 355.484 431.646 355.857 431.484 356.305V356.836C431.484 357.773 431.695 358.529 432.117 359.102C432.539 359.674 433.065 359.961 433.695 359.961C434.346 359.961 434.857 359.721 435.227 359.242C435.602 358.763 435.789 358.135 435.789 357.359C435.789 356.578 435.599 355.948 435.219 355.469C434.844 354.984 434.344 354.742 433.719 354.742ZM423.929 377.712H432.553V381.2H433.865V376.656H423.929V377.712ZM425.433 368.464H432.505V371.248H425.433V368.464ZM429.641 374.112V372.288H433.801V367.424H424.153V372.288H428.329V374.112H422.473V375.168H435.465V374.112H429.641Z" fill="#828282"/>
<rect x="430" y="266" width="20" height="60" rx="4" fill="#E0E0E0"/>
<rect x="410" y="226" width="20" height="100" rx="4" fill="#5AB8AD"/>
<path d="M641.711 361H640.258V351.367L637.344 352.438V351.125L641.484 349.57H641.711V361ZM652.844 352.594C652.844 353.161 652.693 353.667 652.391 354.109C652.094 354.552 651.69 354.898 651.18 355.148C651.773 355.404 652.242 355.776 652.586 356.266C652.935 356.755 653.109 357.31 653.109 357.93C653.109 358.914 652.776 359.698 652.109 360.281C651.448 360.865 650.576 361.156 649.492 361.156C648.398 361.156 647.521 360.865 646.859 360.281C646.203 359.693 645.875 358.909 645.875 357.93C645.875 357.315 646.042 356.76 646.375 356.266C646.714 355.771 647.18 355.396 647.773 355.141C647.268 354.891 646.87 354.544 646.578 354.102C646.286 353.659 646.141 353.156 646.141 352.594C646.141 351.635 646.448 350.875 647.062 350.312C647.677 349.75 648.487 349.469 649.492 349.469C650.492 349.469 651.299 349.75 651.914 350.312C652.534 350.875 652.844 351.635 652.844 352.594ZM651.664 357.898C651.664 357.263 651.461 356.745 651.055 356.344C650.654 355.943 650.128 355.742 649.477 355.742C648.826 355.742 648.302 355.94 647.906 356.336C647.516 356.732 647.32 357.253 647.32 357.898C647.32 358.544 647.51 359.052 647.891 359.422C648.276 359.792 648.81 359.977 649.492 359.977C650.169 359.977 650.701 359.792 651.086 359.422C651.471 359.047 651.664 358.539 651.664 357.898ZM649.492 350.656C648.924 350.656 648.464 350.833 648.109 351.188C647.76 351.536 647.586 352.013 647.586 352.617C647.586 353.195 647.758 353.664 648.102 354.023C648.451 354.378 648.914 354.555 649.492 354.555C650.07 354.555 650.531 354.378 650.875 354.023C651.224 353.664 651.398 353.195 651.398 352.617C651.398 352.039 651.219 351.568 650.859 351.203C650.5 350.839 650.044 350.656 649.492 350.656ZM645.641 378.32V375.36H650.025V374.288H641.481V372.128H649.561V371.088H641.481V369.072H649.881V368H640.153V375.36H644.329V378.32H638.473V379.392H651.513V378.32H645.641Z" fill="#828282"/>
<rect x="646" y="246" width="19" height="80" rx="4" fill="#E0E0E0"/>
<rect x="626" y="166" width="20" height="160" rx="4" fill="#5AB8AD"/>
</g>
<defs>
<filter id="filter0_d" x="0" y="0" width="860" height="420" filterUnits="userSpaceOnUse" color-interpolation-filters="sRGB">
<feFlood flood-opacity="0" result="BackgroundImageFix"/>
<feColorMatrix in="SourceAlpha" type="matrix" values="0 0 0 0 0 0 0 0 0 0 0 0 0 0 0 0 0 0 127 0"/>
<feOffset dy="4"/>
<feGaussianBlur stdDeviation="5"/>
<feColorMatrix type="matrix" values="0 0 0 0 0 0 0 0 0 0 0 0 0 0 0 0 0 0 0.1 0"/>
<feBlend mode="normal" in2="BackgroundImageFix" result="effect1_dropShadow"/>
<feBlend mode="normal" in="SourceGraphic" in2="effect1_dropShadow" result="shape"/>
</filter>
</defs>
</svg>
